<mxfile host="app.diagrams.net" modified="2024-02-26T16:46:00.350Z" agent="Mozilla/5.0 (Windows NT 10.0; Win64; x64) AppleWebKit/537.36 (KHTML, like Gecko) Chrome/121.0.0.0 Safari/537.36" version="23.1.6" etag="Xr9x8GO1-dERsg2ATj4c" type="github">
  <diagram name="Page-1" id="-X1Ya9GHC-v0UUXiSnyx">
    <mxGraphModel>
      <root>
        <mxCell id="0" />
        <mxCell id="1" parent="0" />
      </root>
    </mxGraphModel>
  </diagram>
</mxfile>
